<?xml version="1.0" encoding="UTF-8"?>
<svg version="1.1" xmlns="http://www.w3.org/2000/svg" width="500" height="500">
<path d="M0 0 C1.08571289 0.26272705 1.08571289 0.26272705 2.19335938 0.53076172 C22.13245174 5.3896794 43.13995947 16.72203479 58 31 C58 31.66 58 32.32 58 33 C58.66 33 59.32 33 60 33 C60 33.66 60 34.32 60 35 C60.84498047 35.34224609 60.84498047 35.34224609 61.70703125 35.69140625 C64.62731794 37.35800939 66.45735763 39.42720751 68.6875 41.9375 C69.47511719 42.81277344 70.26273438 43.68804687 71.07421875 44.58984375 C73 47 73 47 74 50 C74.66 50 75.32 50 76 50 C77.80790887 52.4866356 79.48269741 54.96876197 81.125 57.5625 C81.61419922 58.32957275 82.10339844 59.09664551 82.60742188 59.88696289 C94.68267705 79.04755162 94.68267705 79.04755162 97.29296875 89.3203125 C98.01057925 92.04009596 98.91258244 94.66776522 99.83056641 97.32519531 C109.41633972 125.78186736 107.99230285 156.79771792 98.63085938 185.07421875 C98.04152701 186.87323333 97.49561277 188.68630953 96.953125 190.5 C90.80630488 209.7422195 78.50469991 227.12593922 64 241 C63.67 241.66 63.34 242.32 63 243 C62.34 243 61.68 243 61 243 C61 243.66 61 244.32 61 245 C59.10393572 246.72594432 57.2091452 248.30611338 55.1875 249.875 C54.26372559 250.59441772 54.26372559 250.59441772 53.32128906 251.32836914 C48.12935734 255.28884835 42.75026996 258.92069217 37.25 262.4375 C36.48324951 262.9329834 35.71649902 263.4284668 34.92651367 263.93896484 C30.19048935 266.9061248 25.45673804 269.17173508 20.23242188 271.15307617 C17.6416953 272.13593165 15.14567263 273.28848677 12.625 274.4375 C-21.70752698 288.71701058 -60.34351833 286.02017658 -94.3984375 272.48828125 C-102.24752143 269.24478778 -109.39535282 265.2457146 -116.625 260.8125 C-117.71167969 260.15169434 -117.71167969 260.15169434 -118.8203125 259.47753906 C-120.58342451 258.3747464 -122.29712378 257.19370356 -124 256 C-124 255.34 -124 254.68 -124 254 C-124.7425 253.731875 -125.485 253.46375 -126.25 253.1875 C-128.89061949 252.04723249 -130.85552844 250.90619694 -133 249 C-133 248.34 -133 247.68 -133 247 C-133.928125 246.62875 -133.928125 246.62875 -134.875 246.25 C-137.35068687 244.79371361 -137.95125002 243.62187494 -139 241 C-139.66 241 -140.32 241 -141 241 C-141 240.34 -141 239.68 -141 239 C-141.57363281 238.76925781 -142.14726562 238.53851563 -142.73828125 238.30078125 C-161.58276836 227.46276016 -171.88885971 196.66104099 -177.75 177.25 C-177.94859619 176.60208496 -178.14719238 175.95416992 -178.35180664 175.28662109 C-181.80779579 163.41341127 -182.40504725 151.71124571 -182.375 139.4375 C-182.37478851 138.6407486 -182.37457703 137.84399719 -182.37435913 137.02310181 C-182.34232366 124.93328128 -181.63047307 113.60934233 -178 102 C-177.80212891 101.33323242 -177.60425781 100.66646484 -177.40039062 99.97949219 C-176.08849922 95.59166124 -174.60105145 91.29238947 -173 87 C-172.62101562 85.97648437 -172.24203125 84.95296875 -171.8515625 83.8984375 C-165.36978807 67.41123945 -155.06119579 51.93700876 -143 39 C-142.34 39 -141.68 39 -141 39 C-141 38.34 -141 37.68 -141 37 C-140.34 37 -139.68 37 -139 37 C-139 36.34 -139 35.68 -139 35 C-137.26608049 33.39365985 -135.461909 31.8624713 -133.625 30.375 C-132.62726563 29.55773437 -131.62953125 28.74046875 -130.6015625 27.8984375 C-128 26 -128 26 -126 26 C-126 25.34 -126 24.68 -126 24 C-125.34 24 -124.68 24 -124 24 C-124 23.34 -124 22.68 -124 22 C-122.20263672 20.67480469 -122.20263672 20.67480469 -119.6796875 19.171875 C-118.75905518 18.62208984 -117.83842285 18.07230469 -116.88989258 17.50585938 C-115.89497803 16.92642578 -114.90006348 16.34699219 -113.875 15.75 C-112.86397217 15.16025391 -111.85294434 14.57050781 -110.8112793 13.96289062 C-97.37987848 6.23203244 -84.05905864 1.49032387 -69 -2 C-67.9790625 -2.2371875 -66.958125 -2.474375 -65.90625 -2.71875 C-44.26888209 -7.15050005 -21.23894938 -5.47756048 0 0 Z M-110 51 C-110 58.92 -110 66.84 -110 75 C-104.93785156 75.03867188 -104.93785156 75.03867188 -99.7734375 75.078125 C-96.46020606 75.11667268 -93.14712361 75.1617918 -89.83398438 75.20751953 C-87.55313376 75.23553111 -85.27218964 75.25684283 -82.99121094 75.27099609 C-70.40104202 75.35375356 -58.88716038 75.43313884 -47 80 C-46.03312256 80.34192383 -45.06624512 80.68384766 -44.07006836 81.03613281 C-37.44304361 83.41827431 -30.66795241 86.68297084 -27 93 C-26.505 94.98 -26.505 94.98 -26 97 C-53.72 97 -81.44 97 -110 97 C-110 104.92 -110 112.84 -110 121 C-82.94 121 -55.88 121 -28 121 C-28.66 122.98 -29.32 124.96 -30 127 C-32.4375 128.0625 -32.4375 128.0625 -36 129 C-37.6742598 129.79673594 -39.34011875 130.61122627 -41 131.4375 C-56.37359232 138.49935338 -73.71821883 138.08693574 -90.3125 138.5625 C-91.74675315 138.60584415 -93.18099804 138.64946251 -94.61523438 138.69335938 C-98.07673386 138.79872057 -101.53832884 138.90041812 -105 139 C-106.51069217 149.19746021 -106.51069217 149.19746021 -103.91894531 158.81933594 C-100.75300309 162.44235686 -96.84676358 165.14706608 -93 168 C-91.1484375 169.97265625 -91.1484375 169.97265625 -89.75 171.75 C-87.70834154 174.27063991 -85.53812067 176.33911677 -83.0625 178.4375 C-80.28073749 180.79698357 -77.85557513 183.21516289 -75.5 186 C-73.16233211 188.76269841 -70.76269841 191.16233211 -68 193.5 C-65.23730159 195.83766789 -62.83766789 198.23730159 -60.5 201 C-58.18024938 203.74056706 -55.80615453 206.12170582 -53.0625 208.4375 C-50.10177299 210.9418529 -47.53650375 213.56639194 -45 216.5 C-42.48192593 219.41152314 -39.94168177 222.01795601 -37 224.5 C-34.05831823 226.98204399 -31.51807407 229.58847686 -29 232.5 C-25.82523396 236.16945346 -22.47504746 239.37389523 -18.76171875 242.4921875 C-17 244 -17 244 -15.859375 245.57592773 C-12.98613901 247.77650357 -9.95599399 247.36898418 -6.48828125 247.29296875 C-5.39594429 247.28660149 -5.39594429 247.28660149 -4.28153992 247.28010559 C-1.95814873 247.26332733 0.3643715 247.22567855 2.6875 247.1875 C4.26365934 247.17245197 5.83983229 247.15876377 7.41601562 247.14648438 C11.27767877 247.11342685 15.13869178 247.06165194 19 247 C15.67993131 242.3597325 12.45069513 238.1983168 8.0625 234.5 C4.25214822 231.18516482 0.95763253 227.75484052 -2.2890625 223.8984375 C-4.66065111 221.26694876 -7.33105423 219.06603104 -10.03125 216.78125 C-12.03624666 214.9672054 -13.75444957 213.06292323 -15.5 211 C-17.81975062 208.25943294 -20.19384547 205.87829418 -22.9375 203.5625 C-25.89822701 201.0581471 -28.46349625 198.43360806 -31 195.5 C-34.09567403 191.92062691 -37.3591387 188.87819378 -40.9765625 185.83984375 C-44.04762066 183.04743373 -46.67296935 179.90018199 -49.3359375 176.72265625 C-49.88507813 176.15417969 -50.43421875 175.58570313 -51 175 C-51.66 175 -52.32 175 -53 175 C-53 174.34 -53 173.68 -53 173 C-54.64302953 171.31002677 -56.31471312 169.64783606 -58 168 C-59.71199207 166.03352262 -61.35370527 164.02259067 -63 162 C-61.824375 161.896875 -60.64875 161.79375 -59.4375 161.6875 C-44.58787478 159.94730954 -25.84203129 156.51965824 -15 145 C-15 144.34 -15 143.68 -15 143 C-14.4225 142.773125 -13.845 142.54625 -13.25 142.3125 C-7.53928234 138.98124803 -3.93155964 131.77291745 -1 126 C-0.67 124.35 -0.34 122.7 0 121 C8.25 121 16.5 121 25 121 C25 113.08 25 105.16 25 97 C17.08 97 9.16 97 1 97 C0.505 94.03 0.505 94.03 0 91 C-1.04840473 88.42440713 -1.04840473 88.42440713 -2.375 86 C-2.79523438 85.195625 -3.21546875 84.39125 -3.6484375 83.5625 C-4.09445312 82.716875 -4.54046875 81.87125 -5 81 C-5.99 79.02 -6.98 77.04 -8 75 C2.89 75 13.78 75 25 75 C25 67.08 25 59.16 25 51 C-19.55 51 -64.1 51 -110 51 Z " fill="#11A0AE" transform="translate(286,112)"/>
<path d="M0 0 C2.00932387 0.27153025 4.00675922 0.62837884 6 1 C7.11375 1.20689453 7.11375 1.20689453 8.25 1.41796875 C25.503519 5.33683206 45.32950903 17.82581858 58 30 C58 30.66 58 31.32 58 32 C58.66 32 59.32 32 60 32 C60 32.66 60 33.32 60 34 C60.56332031 34.22816406 61.12664062 34.45632812 61.70703125 34.69140625 C64.62731794 36.35800939 66.45735763 38.42720751 68.6875 40.9375 C69.47511719 41.81277344 70.26273437 42.68804687 71.07421875 43.58984375 C73 46 73 46 74 49 C74.66 49 75.32 49 76 49 C77.17333984 50.44946289 77.17333984 50.44946289 78.4609375 52.47265625 C78.93273437 53.20806641 79.40453125 53.94347656 79.890625 54.70117188 C80.38046875 55.48041016 80.8703125 56.25964844 81.375 57.0625 C81.85710937 57.81466797 82.33921875 58.56683594 82.8359375 59.34179688 C84.24303296 61.54994261 85.62655516 63.77079337 87 66 C87.4218457 66.67659668 87.84369141 67.35319336 88.27832031 68.05029297 C89.25067883 69.66266907 90.13501965 71.32756262 91 73 C90.67 73.66 90.34 74.32 90 75 C87.911361 75.67375452 86.19636905 76 84 76 C83.938125 74.700625 83.87625 73.40125 83.8125 72.0625 C83.16765085 66.14671001 80.71153001 60.55876775 76.3359375 56.4296875 C75 55 75 55 75 52 C73.68 52.33 72.36 52.66 71 53 C70.67 51.35 70.34 49.7 70 48 C69.01 48 68.02 48 67 48 C66.01 45.525 66.01 45.525 65 43 C64.01 43 63.02 43 62 43 C62 41.68 62 40.36 62 39 C61.05125 38.9175 60.1025 38.835 59.125 38.75 C56 38 56 38 54.6875 36.1875 C54.04231298 34.1346322 53.45092465 32.10431501 53 30 C52.34 30 51.68 30 51 30 C51 29.34 51 28.68 51 28 C50.236875 28.515625 49.47375 29.03125 48.6875 29.5625 C47.800625 30.036875 46.91375 30.51125 46 31 C45.01 30.67 44.02 30.34 43 30 C41.82244087 27.05610218 41.96651304 26.10046087 43 23 C42.01 23 41.02 23 40 23 C39.67 22.67 39.34 22.34 39 22 C36.94603274 22.40929986 36.94603274 22.40929986 35 23 C34 20 34 20 34 16 C32.865625 15.87625 31.73125 15.7525 30.5625 15.625 C28.7990625 15.315625 28.7990625 15.315625 27 15 C26.67 14.34 26.34 13.68 26 13 C25.01 13.495 25.01 13.495 24 14 C21.99199544 13.71887936 19.98985949 13.38932033 18 13 C18 11.35 18 9.7 18 8 C16.081875 7.814375 16.081875 7.814375 14.125 7.625 C10.25 7.25 10.25 7.25 8 5 C7.01 5 6.02 5 5 5 C4.67 4.34 4.34 3.68 4 3 C1.97536745 2.34786708 1.97536745 2.34786708 0 2 C0 1.34 0 0.68 0 0 Z " fill="#3FBAC7" transform="translate(286,113)"/>
<path d="M0 0 C-0.48944847 0.91592674 -0.48944847 0.91592674 -0.98878479 1.85035706 C-2.20835309 4.44291734 -2.18689945 6.17517552 -2.08984375 9.02734375 C-2.06986328 9.98447266 -2.04988281 10.94160156 -2.02929688 11.92773438 C-1.96821423 13.93046524 -1.90312499 15.933078 -1.83398438 17.93554688 C-1.65176742 27.27887841 -1.65176742 27.27887841 -5 31 C-8 32 -8 32 -12 32 C-12 31.01 -12 30.02 -12 29 C-22.395 29.495 -22.395 29.495 -33 30 C-32.01 32.475 -32.01 32.475 -31 35 C-30.34 34.67 -29.68 34.34 -29 34 C-28.13483472 38.49885947 -27.69096728 41.01647791 -30 45 C-30.40992188 44.16855469 -30.81984375 43.33710938 -31.2421875 42.48046875 C-31.78101563 41.39378906 -32.31984375 40.30710938 -32.875 39.1875 C-33.40867187 38.10855469 -33.94234375 37.02960938 -34.4921875 35.91796875 C-35.97221139 32.92161735 -35.97221139 32.92161735 -38 30 C-38 29.01 -38 28.02 -38 27 C-27.11 27 -16.22 27 -5 27 C-5 19.08 -5 11.16 -5 3 C-49.55 3 -94.1 3 -140 3 C-140 2.67 -140 2.34 -140 2 C-138.87502609 1.98969254 -137.75005219 1.97938507 -136.59098816 1.96876526 C-125.81491993 1.86958338 -115.03889132 1.76675843 -104.26288891 1.66066074 C-98.72727585 1.60626771 -93.19165748 1.55301438 -87.65600586 1.50268555 C-64.9918188 1.29586589 -42.33520648 1.06964863 -19.68119812 0.32704163 C-13.11586197 0.11202703 -6.56895977 -0.05350121 0 0 Z " fill="#56B3BD" transform="translate(316,160)"/>
<path d="M0 0 C10.08380226 10.08380226 9.30754827 36.52157331 9.3137207 49.89477539 C9.15606961 59.39826212 7.68480032 68.6633982 6 78 C5.67 78 5.34 78 5 78 C5.33 61.5 5.66 45 6 28 C5.01 27.67 4.02 27.34 3 27 C1.75 25.4375 1.75 25.4375 1 23 C1.26060003 21.04549977 1.52564261 19.09113372 1.83984375 17.14453125 C2.0611627 14.18101656 1.31327995 11.78745891 0.48046875 8.96484375 C-0.26169097 5.92983287 -0.12961778 3.11082681 0 0 Z " fill="#5ABFC8" transform="translate(383,204)"/>
<path d="M0 0 C4.24483639 3.35638226 7.73193589 6.67462104 11 11 C11 11.66 11 12.32 11 13 C11.66 13 12.32 13 13 13 C14.17333984 14.44946289 14.17333984 14.44946289 15.4609375 16.47265625 C16.16863281 17.57577148 16.16863281 17.57577148 16.890625 18.70117188 C17.38046875 19.48041016 17.8703125 20.25964844 18.375 21.0625 C18.85710937 21.81466797 19.33921875 22.56683594 19.8359375 23.34179688 C21.24303296 25.54994261 22.62655516 27.77079337 24 30 C24.4218457 30.67659668 24.84369141 31.35319336 25.27832031 32.05029297 C26.25067883 33.66266907 27.13501965 35.32756262 28 37 C27.67 37.66 27.34 38.32 27 39 C24.911361 39.67375452 23.19636905 40 21 40 C20.938125 38.700625 20.87625 37.40125 20.8125 36.0625 C20.16765085 30.14671001 17.71153001 24.55876775 13.3359375 20.4296875 C12 19 12 19 12 16 C10.68 16.33 9.36 16.66 8 17 C7.67 15.35 7.34 13.7 7 12 C6.01 12 5.02 12 4 12 C3.51801537 10.75108386 3.03954323 9.50081192 2.5625 8.25 C2.29566406 7.55390625 2.02882813 6.8578125 1.75390625 6.140625 C1.03853307 4.10940997 0.48634348 2.0964709 0 0 Z " fill="#5DC6CE" transform="translate(349,149)"/>
<path d="M0 0 C1.98 0 3.96 0 6 0 C6 0.66 6 1.32 6 2 C-3.46333464 3.99571513 -12.63845388 4.24344035 -22.25 4.125 C-23.68879577 4.11493849 -25.12759845 4.10581831 -26.56640625 4.09765625 C-30.04441753 4.0759206 -33.52216245 4.04157033 -37 4 C-36.8859425 6.91747073 -36.75919732 9.83344495 -36.625 12.75 C-36.5940625 13.575 -36.563125 14.4 -36.53125 15.25 C-36.49257812 16.04921875 -36.45390625 16.8484375 -36.4140625 17.671875 C-36.3826416 18.4050293 -36.3512207 19.13818359 -36.31884766 19.89355469 C-35.96227477 22.24922918 -35.16337117 23.93450591 -34 26 C-35.32 25.67 -36.64 25.34 -38 25 C-39.88341198 18.90660831 -40.0748291 14.27467799 -39 8 C-39.66 8 -40.32 8 -41 8 C-41.1875 5.625 -41.1875 5.625 -41 3 C-37.0851905 0.390127 -33.91368095 0.84506726 -29.39453125 1.0234375 C-28.13572395 1.06097641 -28.13572395 1.06097641 -26.85148621 1.09927368 C-24.17141105 1.18143819 -21.49207676 1.27804084 -18.8125 1.375 C-16.99547296 1.43324323 -15.17841553 1.49054644 -13.36132812 1.546875 C-8.90712607 1.68701163 -4.45353456 1.84009874 0 2 C0 1.34 0 0.68 0 0 Z " fill="#3EA2AB" transform="translate(218,247)"/>
<path d="M0 0 C8.58 0 17.16 0 26 0 C26.020625 4.269375 26.04125 8.53875 26.0625 12.9375 C26.071604 14.28577881 26.08070801 15.63405762 26.09008789 17.02319336 C26.09258545 18.07643799 26.09508301 19.12968262 26.09765625 20.21484375 C26.10551147 21.84087524 26.10551147 21.84087524 26.11352539 23.49975586 C26 26 26 26 25 27 C23.26676534 27.10911359 21.52951997 27.15583079 19.79296875 27.17578125 C18.73142578 27.19962891 17.66988281 27.22347656 16.57617188 27.24804688 C14.32896523 27.29078913 12.0815117 27.3221621 9.83398438 27.34179688 C8.76857422 27.36951172 7.70316406 27.39722656 6.60546875 27.42578125 C5.62731201 27.44036377 4.64915527 27.45494629 3.64135742 27.4699707 C0.34120759 28.13219691 -0.8698632 29.46382262 -3 32 C-2.01 28.535 -2.01 28.535 -1 25 C7.25 25 15.5 25 24 25 C24 17.08 24 9.16 24 1 C16.08 1 8.16 1 0 1 C0 0.67 0 0.34 0 0 Z " fill="#58B2BB" transform="translate(287,208)"/>
<path d="M0 0 C0 3.38023517 -0.87455622 5.83468937 -2 9 C-2.66 9 -3.32 9 -4 9 C-4 9.99 -4 10.98 -4 12 C-4.99 12.66 -5.98 13.32 -7 14 C-7.04320247 16.33293334 -7.04022391 18.6670134 -7 21 C-8.01736771 23.76142665 -8.36170741 24.68085371 -11 26 C-11.12375 27.134375 -11.2475 28.26875 -11.375 29.4375 C-11.58125 30.613125 -11.7875 31.78875 -12 33 C-13.33333333 33.66666667 -14.66666667 34.33333333 -16 35 C-16.38063221 37.3260857 -16.71269945 39.66055264 -17 42 C-18.52734375 43.72265625 -18.52734375 43.72265625 -20 45 C-19.4221447 28.53112408 -9.45997777 12.90251406 0 0 Z " fill="#259CA5" transform="translate(130,168)"/>
<path d="M0 0 C27.06 0 54.12 0 82 0 C80.90936931 4.36252275 80.45920246 5.31911809 77 8 C74.05170152 9.19456921 71.0602596 10.13684986 68 11 C68 10.01 68 9.02 68 8 C70.70879335 6.64560332 73.00933268 6.93498549 76 7 C76 6.01 76 5.02 76 4 C76.99 4 77.98 4 79 4 C79 3.01 79 2.02 79 1 C52.93 1 26.86 1 0 1 C0 0.67 0 0.34 0 0 Z " fill="#3E939A" transform="translate(176,233)"/>
<path d="M0 0 C1.65 0.33 3.3 0.66 5 1 C5 1.66 5 2.32 5 3 C5.721875 2.9175 6.44375 2.835 7.1875 2.75 C10.87110419 3.07743148 12.38626111 4.46093936 15 7 C15 7.66 15 8.32 15 9 C15.66 9 16.32 9 17 9 C17 9.66 17 10.32 17 11 C17.99 11.33 18.98 11.66 20 12 C21.6875 15.5625 21.6875 15.5625 23 19 C21.68 19.33 20.36 19.66 19 20 C19 18.68 19 17.36 19 16 C18.05125 15.9175 17.1025 15.835 16.125 15.75 C13 15 13 15 11.6875 13.1875 C11.04231298 11.1346322 10.45092465 9.10431501 10 7 C9.34 7 8.68 7 8 7 C8 6.34 8 5.68 8 5 C7.236875 5.515625 6.47375 6.03125 5.6875 6.5625 C4.800625 7.036875 3.91375 7.51125 3 8 C2.01 7.67 1.02 7.34 0 7 C-1.17755913 4.05610218 -1.03348696 3.10046087 0 0 Z " fill="#3EBBCA" transform="translate(329,136)"/>
<path d="M0 0 C1.134375 0.020625 2.26875 0.04125 3.4375 0.0625 C-0.80524545 4.75641674 -5.64939154 7.9177119 -11 11.25 C-11.83337891 11.78302734 -12.66675781 12.31605469 -13.52539062 12.86523438 C-19.35836581 16.5310172 -24.46791053 19.47982879 -31.5625 19.0625 C-26.9375 14.1875 -26.9375 14.1875 -23.5625 13.0625 C-21.5625 13.0625 -19.5625 13.0625 -17.5625 13.0625 C-17.2325 12.0725 -16.9025 11.0825 -16.5625 10.0625 C-14.9125 9.7325 -13.2625 9.4025 -11.5625 9.0625 C-11.2325 7.7425 -10.9025 6.4225 -10.5625 5.0625 C-7.0975 4.5675 -7.0975 4.5675 -3.5625 4.0625 C-3.8925 3.0725 -4.2225 2.0825 -4.5625 1.0625 C-3.5625 0.0625 -3.5625 0.0625 0 0 Z " fill="#249EA5" transform="translate(334.5625,362.9375)"/>
<path d="M0 0 C1.8871875 0.0309375 1.8871875 0.0309375 3.8125 0.0625 C3.8125 3.52256569 3.49154468 6.66727658 2.8125 10.0625 C1.8225 10.7225 0.8325 11.3825 -0.1875 12.0625 C-2.22583424 10.7885411 -4.22602126 9.45188077 -6.1875 8.0625 C-6.1875 7.4025 -6.1875 6.7425 -6.1875 6.0625 C-7.1775 5.7325 -8.1675 5.4025 -9.1875 5.0625 C-8.375 3.125 -8.375 3.125 -7.1875 1.0625 C-4.43671116 0.14557039 -2.82801087 -0.04636083 0 0 Z " fill="#0C95A4" transform="translate(236.1875,272.9375)"/>
<path d="M0 0 C10.89 0 21.78 0 33 0 C33 0.33 33 0.66 33 1 C23.1 1.33 13.2 1.66 3 2 C3.99 2.99 4.98 3.98 6 5 C6.33 5.99 6.66 6.98 7 8 C7.66 7.67 8.32 7.34 9 7 C9.86516528 11.49885947 10.30903272 14.01647791 8 18 C7.59007812 17.16855469 7.18015625 16.33710938 6.7578125 15.48046875 C6.21898437 14.39378906 5.68015625 13.30710938 5.125 12.1875 C4.59132813 11.10855469 4.05765625 10.02960938 3.5078125 8.91796875 C2.02778861 5.92161735 2.02778861 5.92161735 0 3 C0 2.01 0 1.02 0 0 Z " fill="#68C0C8" transform="translate(278,187)"/>
<path d="M0 0 C0 0.33 0 0.66 0 1 C-2.99986993 1.1693475 -5.99986092 1.33554793 -9 1.5 C-10.25876953 1.57154297 -10.25876953 1.57154297 -11.54296875 1.64453125 C-15.49494332 1.85897948 -19.41683641 2.02015472 -23.375 1.96875 C-26.31049289 1.99405597 -28.23637442 2.3090936 -31 3 C-33.08674954 2.91620565 -35.17149066 2.76583244 -37.25 2.5625 C-38.32765625 2.46066406 -39.4053125 2.35882813 -40.515625 2.25390625 C-41.33546875 2.17011719 -42.1553125 2.08632812 -43 2 C-32.02160626 -4.67420959 -12.20839253 -0.70766313 0 0 Z " fill="#53BBC2" transform="translate(267,108)"/>
<path d="M0 0 C0.66 0.33 1.32 0.66 2 1 C2.57433809 10.76374745 2.57433809 10.76374745 -1 15 C-4 16 -4 16 -8 16 C-8 15.01 -8 14.02 -8 13 C-15.92 13 -23.84 13 -32 13 C-32 12.67 -32 12.34 -32 12 C-16.655 11.505 -16.655 11.505 -1 11 C-0.67 7.37 -0.34 3.74 0 0 Z " fill="#2BA8B0" transform="translate(312,176)"/>
<path d="M0 0 C0 3.63327194 -0.95586411 5.04735927 -3 8 C-3.99 8.66 -4.98 9.32 -6 10 C-6.3196875 10.639375 -6.639375 11.27875 -6.96875 11.9375 C-8.45887991 14.91775983 -10.75553661 16.41957092 -13.34375 18.4375 C-15.15730652 20.14840238 -16.0194523 21.72512933 -17 24 C-17.765625 22.34375 -17.765625 22.34375 -18 20 C-16.234375 17.34375 -16.234375 17.34375 -13.75 14.5 C-12.94046875 13.5615625 -12.1309375 12.623125 -11.296875 11.65625 C-10.53890625 10.7796875 -9.7809375 9.903125 -9 9 C-8.44828125 8.2265625 -7.8965625 7.453125 -7.328125 6.65625 C-6.88984375 6.1096875 -6.4515625 5.563125 -6 5 C-5.34 5 -4.68 5 -4 5 C-4 4.34 -4 3.68 -4 3 C-3.34 3 -2.68 3 -2 3 C-2 2.34 -2 1.68 -2 1 C-1.34 0.67 -0.68 0.34 0 0 Z " fill="#48AAB3" transform="translate(149,146)"/>
<path d="M0 0 C0.33 0 0.66 0 1 0 C1.22680814 11.61761706 0.3466026 22.84465799 -3 34 C-3.33 34 -3.66 34 -4 34 C-4.63976697 22.11099722 -2.78029204 11.53076477 0 0 Z " fill="#42A8B1" transform="translate(108,214)"/>
<path d="M0 0 C2.375 0.6875 2.375 0.6875 5 2 C6.3125 4.625 6.3125 4.625 7 7 C8.65 7 10.3 7 12 7 C12.82638376 9.89234315 13 11.88742431 13 15 C8.21491636 12.53495691 4.38070901 9.16437741 1 5 C0.0625 2.0625 0.0625 2.0625 0 0 Z " fill="#38A5AD" transform="translate(239,289)"/>
<path d="M0 0 C0.83583327 2.37607949 1.1842383 3.54449627 0.22265625 5.921875 C-0.8515625 7.61458333 -1.92578125 9.30729167 -3 11 C-3.99 11 -4.98 11 -6 11 C-6.08507812 11.60199219 -6.17015625 12.20398438 -6.2578125 12.82421875 C-7.21633809 15.63421218 -8.36440255 16.29050777 -10.875 17.8125 C-11.57367188 18.25207031 -12.27234375 18.69164062 -12.9921875 19.14453125 C-15 20 -15 20 -18 19 C-13.25 15 -13.25 15 -11 15 C-11 14.34 -11 13.68 -11 13 C-10.113125 12.29875 -9.22625 11.5975 -8.3125 10.875 C-4.52183279 7.87668128 -2.34016356 4.17294652 0 0 Z " fill="#56B4BB" transform="translate(282,242)"/>
<path d="M0 0 C2.475 0.495 2.475 0.495 5 1 C5 1.99 5 2.98 5 4 C5.66 4 6.32 4 7 4 C7.495 5.485 7.495 5.485 8 7 C7.67 7.66 7.34 8.32 7 9 C-4.55 9 -16.1 9 -28 9 C-28 8.01 -28 7.02 -28 6 C-27.67 6.33 -27.34 6.66 -27 7 C-24.6243148 7.0883967 -22.27791326 7.11530305 -19.90234375 7.09765625 C-19.19348526 7.0962413 -18.48462677 7.09482635 -17.75428772 7.09336853 C-15.48198288 7.08775443 -13.20977525 7.07519963 -10.9375 7.0625 C-9.40039204 7.05748681 -7.86328255 7.05292359 -6.32617188 7.04882812 C-2.55074358 7.03778042 1.22461171 7.02050641 5 7 C2.525 3.535 2.525 3.535 0 0 Z " fill="#7CBFC5" transform="translate(299,351)"/>
<path d="M0 0 C2 3 2 3 2 5 C2.99 5.33 3.98 5.66 5 6 C6.1875 9.0625 6.1875 9.0625 7 12 C7.99 12 8.98 12 10 12 C10.99 14.97 11.98 17.94 13 21 C9.71075311 20.05064181 8.26840519 19.3817049 6.26953125 16.5390625 C5.78871094 15.57742188 5.30789062 14.61578125 4.8125 13.625 C4.32394531 12.66851562 3.83539063 11.71203125 3.33203125 10.7265625 C2.67267578 9.37691406 2.67267578 9.37691406 2 8 C1.61199219 7.30648438 1.22398438 6.61296875 0.82421875 5.8984375 C0 4 0 4 0 0 Z " fill="#40ABB3" transform="translate(115,306)"/>
<path d="M0 0 C6.76532673 1.78529455 11.65460165 4.49937851 17 9 C16.67 9.66 16.34 10.32 16 11 C11.125 9.25 11.125 9.25 10 7 C8.63875 7.309375 8.63875 7.309375 7.25 7.625 C3.88972103 8.0127245 2.75924185 7.80411967 0 6 C0.33 5.01 0.66 4.02 1 3 C0.67 2.01 0.34 1.02 0 0 Z " fill="#39ADB8" transform="translate(240,192)"/>
<path d="M0 0 C1.48643845 0.56454632 2.96406016 1.15234889 4.4375 1.75 C5.67306641 2.23726562 5.67306641 2.23726562 6.93359375 2.734375 C9 4 9 4 9.78515625 6.140625 C9.85605469 6.75421875 9.92695313 7.3678125 10 8 C5.45194365 8.17835515 2.1205746 7.99785435 -2 6 C-1.34 4.02 -0.68 2.04 0 0 Z " fill="#28A6AF" transform="translate(250,200)"/>
<path d="M0 0 C1.65 0 3.3 0 5 0 C1.57745529 6.69628312 -3.00289168 12.39472434 -8 18 C-8.33 18 -8.66 18 -9 18 C-9 16.02 -9 14.04 -9 12 C-8.01 12.33 -7.02 12.66 -6 13 C-6 12.34 -6 11.68 -6 11 C-5.34 11 -4.68 11 -4 11 C-4.33 9.68 -4.66 8.36 -5 7 C-3.68 7 -2.36 7 -1 7 C-0.67 4.69 -0.34 2.38 0 0 Z " fill="#3CAEB6" transform="translate(364,329)"/>
<path d="M0 0 C0.99 0.33 1.98 0.66 3 1 C3 2.32 3 3.64 3 5 C0.5 6.75 0.5 6.75 -2 8 C-2 7.34 -2 6.68 -2 6 C-12.89 6 -23.78 6 -35 6 C-35 5.67 -35 5.34 -35 5 C-23.45 5 -11.9 5 0 5 C0 3.35 0 1.7 0 0 Z " fill="#15909A" transform="translate(306,355)"/>
<path d="M0 0 C0.598125 0.763125 1.19625 1.52625 1.8125 2.3125 C3.84004112 4.91335259 3.84004112 4.91335259 5.75 6.6875 C7 8 7 8 7 10 C7.99 10 8.98 10 10 10 C10.66 11.32 11.32 12.64 12 14 C7.71449811 13.49890292 5.779909 12.28118172 2.8125 9.1875 C2.13832031 8.50042969 1.46414063 7.81335938 0.76953125 7.10546875 C-0.88778361 5.13352016 -1.97080404 3.34867795 -3 1 C-2.01 0.67 -1.02 0.34 0 0 Z " fill="#4AAEB3" transform="translate(257,305)"/>
<path d="M0 0 C0.99 0.33 1.98 0.66 3 1 C3 1.66 3 2.32 3 3 C3.99 3 4.98 3 6 3 C7.8125 4.625 7.8125 4.625 9 7 C8.1875 10.25 8.1875 10.25 7 13 C6.34 13 5.68 13 5 13 C4.67 11.35 4.34 9.7 4 8 C3.34 8 2.68 8 2 8 C0.74335022 5.09399739 0 3.20395416 0 0 Z " fill="#279EA8" transform="translate(112,298)"/>
<path d="M0 0 C0.91007812 0.10183594 1.82015625 0.20367187 2.7578125 0.30859375 C3.45648438 0.39238281 4.15515625 0.47617187 4.875 0.5625 C3.885 1.0575 3.885 1.0575 2.875 1.5625 C2.875 2.5525 2.875 3.5425 2.875 4.5625 C-0.79910785 5.73821451 -4.29429183 5.63616746 -8.125 5.5625 C-7.75 3.125 -7.75 3.125 -7.125 0.5625 C-4.50184968 -0.74907516 -2.89466564 -0.33399988 0 0 Z " fill="#1098A2" transform="translate(285.125,385.4375)"/>
<path d="M0 0 C6.28119035 4.25984984 11.14267865 9.18671647 16 15 C15.01 15.33 14.02 15.66 13 16 C12.67 14.68 12.34 13.36 12 12 C10.68 11.67 9.36 11.34 8 11 C8 10.01 8 9.02 8 8 C6.68 7.67 5.36 7.34 4 7 C4 6.34 4 5.68 4 5 C2.68 4.67 1.36 4.34 0 4 C0 2.68 0 1.36 0 0 Z " fill="#59B0B8" transform="translate(196,284)"/>
<path d="M0 0 C0 3.38023517 -0.87455622 5.83468937 -2 9 C-2.66 9 -3.32 9 -4 9 C-4 9.99 -4 10.98 -4 12 C-4.99 12.66 -5.98 13.32 -7 14 C-8.2188121 17.55672179 -8.2188121 17.55672179 -9 21 C-9.99 21 -10.98 21 -12 21 C-10.57298364 15.92356475 -8.32425022 12.02446597 -5.4375 7.6875 C-5.02564453 7.05521484 -4.61378906 6.42292969 -4.18945312 5.77148438 C-1.18752426 1.18752426 -1.18752426 1.18752426 0 0 Z " fill="#53B0B7" transform="translate(130,168)"/>
<path d="M0 0 C0 0.33 0 0.66 0 1 C-10.41303106 2.41193641 -20.47329223 3.30028643 -31 3 C-31 2.67 -31 2.34 -31 2 C-27.37 2 -23.74 2 -20 2 C-20 1.34 -20 0.68 -20 0 C-13.26188501 -1.41030314 -6.80977041 -0.66561666 0 0 Z " fill="#37A9B4" transform="translate(272,393)"/>
<path d="M0 0 C1.35874007 4.0762202 -0.00339648 6.89938027 -1.3125 10.8125 C-1.53873047 11.51181641 -1.76496094 12.21113281 -1.99804688 12.93164062 C-2.65572974 14.95775873 -3.32546546 16.97943711 -4 19 C-4.38542969 20.15886719 -4.77085937 21.31773437 -5.16796875 22.51171875 C-5.44253906 23.33285156 -5.71710938 24.15398437 -6 25 C-6.33 25 -6.66 25 -7 25 C-6.88648483 23.18674449 -6.75887039 21.37436643 -6.625 19.5625 C-6.55539062 18.55316406 -6.48578125 17.54382813 -6.4140625 16.50390625 C-6.27742188 15.67761719 -6.14078125 14.85132813 -6 14 C-5.34 13.67 -4.68 13.34 -4 13 C-3.38333662 10.22111592 -3.38333662 10.22111592 -3 7 C-2.5625 3.6875 -2.5625 3.6875 -2 1 C-1.34 0.67 -0.68 0.34 0 0 Z " fill="#6AC3CA" transform="translate(387,283)"/>
<path d="M0 0 C0.33 0 0.66 0 1 0 C3.22597714 5.44730992 3.42652499 10.57787577 3.625 16.375 C3.66367188 17.30183594 3.70234375 18.22867187 3.7421875 19.18359375 C3.83587591 21.4555377 3.92159348 23.72748596 4 26 C-0.85752081 18.71371878 -0.3006976 8.48635444 0 0 Z " fill="#4FADB7" transform="translate(104,258)"/>
<path d="M0 0 C2.70740662 2.70740662 3.1010554 5.2626766 4.125 8.9375 C4.47820312 10.18402344 4.83140625 11.43054688 5.1953125 12.71484375 C6 16 6 16 6 19 C5.01 18.67 4.02 18.34 3 18 C0.57416364 12.22990364 -0.41449132 6.21736987 0 0 Z " fill="#5DC3CF" transform="translate(383,204)"/>
<path d="M0 0 C1.65 0.33 3.3 0.66 5 1 C5 1.66 5 2.32 5 3 C6.32 3 7.64 3 9 3 C9.33 4.32 9.66 5.64 10 7 C9.34 7 8.68 7 8 7 C8 6.34 8 5.68 8 5 C7.236875 5.515625 6.47375 6.03125 5.6875 6.5625 C4.800625 7.036875 3.91375 7.51125 3 8 C2.01 7.67 1.02 7.34 0 7 C-1.17755913 4.05610218 -1.03348696 3.10046087 0 0 Z " fill="#2BBAC6" transform="translate(329,136)"/>
<path d="M0 0 C-1.98 0.99 -1.98 0.99 -4 2 C-4 2.66 -4 3.32 -4 4 C-2.25425612 5.59878075 -0.40118663 7.01415879 1.46875 8.46484375 C3 10 3 10 3 13 C2.34 13 1.68 13 1 13 C1 12.34 1 11.68 1 11 C0.01 10.67 -0.98 10.34 -2 10 C-3.82421875 8.22265625 -3.82421875 8.22265625 -5.6875 6.0625 C-6.31011719 5.35222656 -6.93273437 4.64195312 -7.57421875 3.91015625 C-9 2 -9 2 -9 0 C-5.62182575 -0.84454356 -3.32534757 -1.10844919 0 0 Z " fill="#54AAB0" transform="translate(232,274)"/>
<path d="M0 0 C0.66 0.33 1.32 0.66 2 1 C1.67 1.66 1.34 2.32 1 3 C1.66 3.33 2.32 3.66 3 4 C1.39125 4.37125 1.39125 4.37125 -0.25 4.75 C-4.02329237 5.69719913 -4.02329237 5.69719913 -6.1875 8.1875 C-6.785625 8.785625 -7.38375 9.38375 -8 10 C-10.25 9.75 -10.25 9.75 -12 9 C-11.01 8.67 -10.02 8.34 -9 8 C-9 7.34 -9 6.68 -9 6 C-8.34 6 -7.68 6 -7 6 C-7 5.34 -7 4.68 -7 4 C-1.7265625 0.77734375 -1.7265625 0.77734375 0 0 Z " fill="#57B8C4" transform="translate(169,130)"/>
<path d="M0 0 C0.99 0 1.98 0 3 0 C3 0.66 3 1.32 3 2 C2.34 2 1.68 2 1 2 C1 2.66 1 3.32 1 4 C-0.75 5.5078125 -0.75 5.5078125 -3 7.125 C-3.7425 7.66382813 -4.485 8.20265625 -5.25 8.7578125 C-5.8275 9.16773438 -6.405 9.57765625 -7 10 C-7.66 9.01 -8.32 8.02 -9 7 C-8.01 6.67 -7.02 6.34 -6 6 C-6 5.01 -6 4.02 -6 3 C-5.195625 2.87625 -4.39125 2.7525 -3.5625 2.625 C-2.716875 2.41875 -1.87125 2.2125 -1 2 C-0.67 1.34 -0.34 0.68 0 0 Z " fill="#30A8AF" transform="translate(346,353)"/>
<path d="M0 0 C0.66 0 1.32 0 2 0 C2 0.66 2 1.32 2 2 C3.175625 2.185625 3.175625 2.185625 4.375 2.375 C7 3 7 3 9 5 C8.34 5 7.68 5 7 5 C7 5.66 7 6.32 7 7 C8.32 7.33 9.64 7.66 11 8 C11 8.66 11 9.32 11 10 C11.66 10.33 12.32 10.66 13 11 C12.67 11.66 12.34 12.32 12 13 C3.29577465 5.66901408 3.29577465 5.66901408 0 1 C0 0.67 0 0.34 0 0 Z " fill="#57B5BC" transform="translate(286,338)"/>
<path d="M0 0 C0.99 0 1.98 0 3 0 C2.44823576 3.86234965 1.06857668 5.62185307 -2 8 C-4.94829848 9.19456921 -7.9397404 10.13684986 -11 11 C-11 10.01 -11 9.02 -11 8 C-8.29120665 6.64560332 -5.99066732 6.93498549 -3 7 C-3 6.01 -3 5.02 -3 4 C-2.01 4 -1.02 4 0 4 C0 2.68 0 1.36 0 0 Z " fill="#64B2B6" transform="translate(255,233)"/>
<path d="M0 0 C-2.70928069 2.70928069 -5.01746777 2.84542048 -8.75 3.625 C-10.56757813 4.01558594 -10.56757813 4.01558594 -12.421875 4.4140625 C-15.69856789 4.95063885 -18.68918709 5.11171455 -22 5 C-22 4.67 -22 4.34 -22 4 C-20.35 4 -18.7 4 -17 4 C-17 3.34 -17 2.68 -17 2 C-11.23918159 0.7017874 -5.91260345 -0.25706972 0 0 Z " fill="#6ABEC7" transform="translate(241,245)"/>
<path d="M0 0 C0.33 0.66 0.66 1.32 1 2 C2.98 1.67 4.96 1.34 7 1 C7.33 1.99 7.66 2.98 8 4 C10.01508358 4.73323796 10.01508358 4.73323796 12 5 C12 5.66 12 6.32 12 7 C10.39536551 6.68991116 8.79130769 6.37683713 7.1875 6.0625 C6.29417969 5.88847656 5.40085938 5.71445312 4.48046875 5.53515625 C2 5 2 5 -1 4 C-0.67 2.68 -0.34 1.36 0 0 Z " fill="#0A959F" transform="translate(206,384)"/>
<path d="M0 0 C3.45201639 1.47721422 5.64961936 3.43794001 8.25 6.125 C8.95640625 6.84945313 9.6628125 7.57390625 10.390625 8.3203125 C11.18726563 9.15175781 11.18726563 9.15175781 12 10 C11.67 10.66 11.34 11.32 11 12 C8.5 10.625 8.5 10.625 6 9 C6 8.34 6 7.68 6 7 C5.38125 6.95875 4.7625 6.9175 4.125 6.875 C3.42375 6.58625 2.7225 6.2975 2 6 C0.75 2.9375 0.75 2.9375 0 0 Z " fill="#5EB6BD" transform="translate(214,302)"/>
<path d="M0 0 C2.375 0.625 2.375 0.625 5 2 C6.3125 5.125 6.3125 5.125 7 8 C4 9 4 9 0 9 C0 6.03 0 3.06 0 0 Z " fill="#28B8C6" transform="translate(370,180)"/>
<path d="M0 0 C0.66 0.66 1.32 1.32 2 2 C1.67 2.66 1.34 3.32 1 4 C1.33 4.99 1.66 5.98 2 7 C0.5625 9.1875 0.5625 9.1875 -1 11 C-1.33 10.34 -1.66 9.68 -2 9 C-2.66 9.66 -3.32 10.32 -4 11 C-4.8125 8.875 -4.8125 8.875 -5 6 C-3.55576519 3.69892439 -1.89127865 1.98353614 0 0 Z " fill="#0C95A4" transform="translate(134,165)"/>
<path d="M0 0 C0 0.66 0 1.32 0 2 C-0.66 2 -1.32 2 -2 2 C-2 2.66 -2 3.32 -2 4 C-5.63423209 6.32590854 -8.77088331 6.16265833 -13 6 C-13 6.66 -13 7.32 -13 8 C-14.32 7.67 -15.64 7.34 -17 7 C-3.24137931 0 -3.24137931 0 0 0 Z " fill="#59B6C1" transform="translate(198,116)"/>
<path d="M0 0 C1.9375 0.375 1.9375 0.375 4 1 C4.99 1 5.98 1 7 1 C7.33 1.99 7.66 2.98 8 4 C6.5625 6.1875 6.5625 6.1875 5 8 C2.69 6.02 0.38 4.04 -2 2 C-1.34 1.34 -0.68 0.68 0 0 Z " fill="#36A5B1" transform="translate(280,330)"/>
<path d="M0 0 C4.01330548 0.54233858 7.89549148 1.42764624 11.8125 2.4375 C12.76769531 2.68371094 13.72289062 2.92992188 14.70703125 3.18359375 C17 4 17 4 18 6 C15.8535247 5.88655624 13.70779408 5.75893655 11.5625 5.625 C10.36753906 5.55539063 9.17257812 5.48578125 7.94140625 5.4140625 C6.97074219 5.27742188 6.00007813 5.14078125 5 5 C4.67 4.34 4.34 3.68 4 3 C1.97536745 2.34786708 1.97536745 2.34786708 0 2 C0 1.34 0 0.68 0 0 Z " fill="#72CCD4" transform="translate(286,113)"/>
<path d="M0 0 C4.25742137 0.47304682 6.25705098 2.8863822 9 6 C9.33 6.99 9.66 7.98 10 9 C7 9 7 9 5.17578125 7.28515625 C4.56089844 6.55167969 3.94601562 5.81820313 3.3125 5.0625 C2.68988281 4.33160156 2.06726563 3.60070312 1.42578125 2.84765625 C0 1 0 1 0 0 Z " fill="#51B0B8" transform="translate(269,321)"/>
<path d="M0 0 C-1.05078125 1.45703125 -1.05078125 1.45703125 -3 3 C-6.35546875 3.51171875 -6.35546875 3.51171875 -10.1875 3.6875 C-12.09595703 3.78611328 -12.09595703 3.78611328 -14.04296875 3.88671875 C-15.01878906 3.92410156 -15.99460938 3.96148437 -17 4 C-11.77468437 0.51645625 -6.1868663 -0.30934332 0 0 Z " fill="#67C1CA" transform="translate(223,110)"/>
<path d="M0 0 C1.134375 0.020625 2.26875 0.04125 3.4375 0.0625 C0.32733545 3.35038824 -2.57868925 5.89985988 -6.5625 8.0625 C-6.5625 6.7425 -6.5625 5.4225 -6.5625 4.0625 C-5.5725 4.0625 -4.5825 4.0625 -3.5625 4.0625 C-3.8925 3.0725 -4.2225 2.0825 -4.5625 1.0625 C-3.5625 0.0625 -3.5625 0.0625 0 0 Z " fill="#37A5AF" transform="translate(334.5625,362.9375)"/>
<path d="M0 0 C0.33 0.66 0.66 1.32 1 2 C3.02463255 2.65213292 3.02463255 2.65213292 5 3 C4.34 4.65 3.68 6.3 3 8 C2.01 7.67 1.02 7.34 0 7 C0 6.34 0 5.68 0 5 C-0.99 4.67 -1.98 4.34 -3 4 C-2.01 2.68 -1.02 1.36 0 0 Z " fill="#0E93A1" transform="translate(299,344)"/>
<path d="M0 0 C1.72945653 0.14235457 3.45855654 0.28904382 5.1875 0.4375 C6.63189453 0.55931641 6.63189453 0.55931641 8.10546875 0.68359375 C10.78649602 0.97666151 13.3662986 1.42703754 16 2 C13.25429476 3.86707956 11.94652392 3.99611083 8.5625 3.75 C5.48252466 3.10158414 2.85519587 2.29781631 0 1 C0 0.67 0 0.34 0 0 Z " fill="#5FC2CB" transform="translate(267,109)"/>
<path d="M0 0 C4.2742558 1.5830577 6.26531794 4.50568404 9 8 C7.35 7.67 5.7 7.34 4 7 C3.67 6.01 3.34 5.02 3 4 C1.35 3.67 -0.3 3.34 -2 3 C-1.34 2.67 -0.68 2.34 0 2 C0 1.34 0 0.68 0 0 Z " fill="#5FB0B9" transform="translate(261,349)"/>
<path d="M0 0 C4.59306496 1.4859916 7.43569245 3.85014682 11 7 C9.02 7.99 9.02 7.99 7 9 C6.67 8.01 6.34 7.02 6 6 C4.00628175 4.65729179 2.0065438 3.32346506 0 2 C0 1.34 0 0.68 0 0 Z " fill="#68C8D3" transform="translate(326,131)"/>
<path d="M0 0 C2 2 2 2 2 5 C-2.455 5.495 -2.455 5.495 -7 6 C-2.25 1.125 -2.25 1.125 0 0 Z " fill="#1897A3" transform="translate(310,376)"/>
<path d="M0 0 C3.81684226 1.55500981 6.19195732 4.03595495 9 7 C8.67 7.66 8.34 8.32 8 9 C6.68 8.34 5.36 7.68 4 7 C4 6.01 4 5.02 4 4 C2.68 4 1.36 4 0 4 C0 2.68 0 1.36 0 0 Z " fill="#5BB4BA" transform="translate(248,336)"/>
<path d="M0 0 C1.98 0.99 1.98 0.99 4 2 C3.25 8.75 3.25 8.75 1 11 C-0.20272819 8.59454362 -0.10071472 7.05003047 -0.0625 4.375 C-0.05347656 3.55773437 -0.04445313 2.74046875 -0.03515625 1.8984375 C-0.02355469 1.27195312 -0.01195313 0.64546875 0 0 Z " fill="#11919F" transform="translate(108,277)"/>
<path d="M0 0 C0.66 0 1.32 0 2 0 C2 0.66 2 1.32 2 2 C2.66 2 3.32 2 4 2 C3.67 3.32 3.34 4.64 3 6 C2.01 5.67 1.02 5.34 0 5 C0 5.66 0 6.32 0 7 C-0.66 7 -1.32 7 -2 7 C-2.125 4.625 -2.125 4.625 -2 2 C-1.34 1.34 -0.68 0.68 0 0 Z " fill="#0A95A3" transform="translate(124,180)"/>
<path d="M0 0 C2.3125 -0.3125 2.3125 -0.3125 5 0 C6.8125 2.5 6.8125 2.5 8 5 C7.01 5 6.02 5 5 5 C4.67 4.67 4.34 4.34 4 4 C1.94603274 4.40929986 1.94603274 4.40929986 0 5 C-0.33 4.01 -0.66 3.02 -1 2 C-0.67 1.34 -0.34 0.68 0 0 Z " fill="#28BAC6" transform="translate(321,131)"/>
<path d="M0 0 C2.475 0.99 2.475 0.99 5 2 C5.33 4.31 5.66 6.62 6 9 C1.2 5.67692308 1.2 5.67692308 0.1875 2.25 C0.125625 1.5075 0.06375 0.765 0 0 Z " fill="#53ACB5" transform="translate(239,289)"/>
<path d="M0 0 C0.33 0.66 0.66 1.32 1 2 C0.67 2.99 0.34 3.98 0 5 C-3.47823115 6.15941038 -5.45895578 5.70820884 -9 5 C-6.14693203 2.67527795 -3.45925163 1.2491742 0 0 Z " fill="#51AFBC" transform="translate(263,262)"/>
<path d="M0 0 C0.33 0 0.66 0 1 0 C0.91276622 1.77174819 0.80458345 3.54247377 0.6875 5.3125 C0.62949219 6.29863281 0.57148437 7.28476563 0.51171875 8.30078125 C-0.04622813 11.24384457 -0.68540132 12.18182999 -3 14 C-2.58846263 9.02906176 -2.20399168 4.55491614 0 0 Z " fill="#57ADB7" transform="translate(113,199)"/>
<path d="M0 0 C6.625 -0.25 6.625 -0.25 10 2 C8.7625 2.0825 7.525 2.165 6.25 2.25 C3.01117036 2.63475459 2.12092117 2.90024003 -0.5 5.0625 C-1.2425 6.0215625 -1.2425 6.0215625 -2 7 C-1.34 4.69 -0.68 2.38 0 0 Z " fill="#53AEB4" transform="translate(286,233)"/>
<path d="M0 0 C2.77704031 1.38852015 3.03382737 2.96788482 4.1875 5.8125 C4.55230469 6.68519531 4.91710937 7.55789062 5.29296875 8.45703125 C6.04115271 11.14801336 5.9458895 12.415372 5 15 C2.18467181 9.95859836 0.4811491 5.77378925 0 0 Z " fill="#77CBD1" transform="translate(377,189)"/>
<path d="M0 0 C0.99 0.33 1.98 0.66 3 1 C2.21625 1.7425 1.4325 2.485 0.625 3.25 C-1.56504531 5.54433318 -2.82731386 7.12158858 -4 10 C-4.8125 8.375 -4.8125 8.375 -5 6 C-3.53181864 3.75390165 -1.84147142 1.97621323 0 0 Z " fill="#36A5AA" transform="translate(136,160)"/>
<path d="M0 0 C-0.33 0.66 -0.66 1.32 -1 2 C-5.62 2 -10.24 2 -15 2 C-15 1.67 -15 1.34 -15 1 C-13.25215171 0.63536268 -11.50159498 0.2836922 -9.75 -0.0625 C-8.28820312 -0.35833984 -8.28820312 -0.35833984 -6.796875 -0.66015625 C-4.131881 -0.98397535 -2.51128277 -0.85503199 0 0 Z " fill="#5DB5BA" transform="translate(247,271)"/>
<path d="M0 0 C3.375 0.6875 3.375 0.6875 7 2 C8.4375 4.625 8.4375 4.625 9 7 C8.34 7 7.68 7 7 7 C7 6.34 7 5.68 7 5 C6.21625 4.731875 5.4325 4.46375 4.625 4.1875 C2 3 2 3 0 0 Z " fill="#42A6B0" transform="translate(155,361)"/>
<path d="M0 0 C3.7952131 1.49097658 5.61042731 3.75700849 8 7 C6.02 7 4.04 7 2 7 C1.34 4.69 0.68 2.38 0 0 Z " fill="#5AB5BC" transform="translate(183,271)"/>
<path d="M0 0 C1.98567708 0.09765625 3.97135417 0.1953125 5.95703125 0.29296875 C5.62703125 1.28296875 5.29703125 2.27296875 4.95703125 3.29296875 C1.65703125 3.29296875 -1.64296875 3.29296875 -5.04296875 3.29296875 C-2.04296875 0.29296875 -2.04296875 0.29296875 0 0 Z " fill="#1499A4" transform="translate(256.04296875,266.70703125)"/>
<path d="M0 0 C1.98 0.495 1.98 0.495 4 1 C3.34 3.64 2.68 6.28 2 9 C0.4375 7.3125 0.4375 7.3125 -1 5 C-0.6875 2.25 -0.6875 2.25 0 0 Z " fill="#2AB8C3" transform="translate(385,222)"/>
<path d="M0 0 C0 0.99 0 1.98 0 3 C0.99 3 1.98 3 3 3 C3 3.66 3 4.32 3 5 C2.01 5.33 1.02 5.66 0 6 C0 5.34 0 4.68 0 4 C-0.99 4.33 -1.98 4.66 -3 5 C-3.66 3.68 -4.32 2.36 -5 1 C-3 0 -3 0 0 0 Z " fill="#35BBC2" transform="translate(286,112)"/>
<path d="M0 0 C0.99 0.33 1.98 0.66 3 1 C2.67 2.98 2.34 4.96 2 7 C0 6 0 6 -2 4 C-2 3.01 -2 2.02 -2 1 C-1.34 0.67 -0.68 0.34 0 0 Z " fill="#19A7B4" transform="translate(378,298)"/>
<path d="M0 0 C1.13643966 3.40931897 0.86747764 4.00335456 -0.4375 7.1875 C-0.86869141 8.26064453 -0.86869141 8.26064453 -1.30859375 9.35546875 C-1.53675781 9.89816406 -1.76492188 10.44085938 -2 11 C-2.33 11 -2.66 11 -3 11 C-2.8864371 9.35333797 -2.75882619 7.70763918 -2.625 6.0625 C-2.55539062 5.14597656 -2.48578125 4.22945313 -2.4140625 3.28515625 C-2.27742188 2.53105469 -2.14078125 1.77695312 -2 1 C-1.34 0.67 -0.68 0.34 0 0 Z " fill="#58BEC4" transform="translate(387,283)"/>
<path d="M0 0 C2.91517292 1.07401108 4.77810176 1.77810176 7 4 C7 4.99 7 5.98 7 7 C6.01 7.33 5.02 7.66 4 8 C3.71125 7.236875 3.4225 6.47375 3.125 5.6875 C2.03730987 2.84970692 2.03730987 2.84970692 0 0 Z " fill="#2E9FA7" transform="translate(254,344)"/>
<path d="M0 0 C0.66 0 1.32 0 2 0 C1.34 2.31 0.68 4.62 0 7 C-0.99 6.67 -1.98 6.34 -3 6 C-3.33 5.01 -3.66 4.02 -4 3 C-3.01 3 -2.02 3 -1 3 C-0.67 2.01 -0.34 1.02 0 0 Z " fill="#1199A3" transform="translate(349,346)"/>
<path d="M0 0 C3.32604248 1.66302124 3.80042476 4.62976481 5 8 C4.6875 10.4375 4.6875 10.4375 4 12 C4 11.34 4 10.68 4 10 C3.34 10 2.68 10 2 10 C1.690625 9.05125 1.38125 8.1025 1.0625 7.125 C0.12605258 4.13919592 0.12605258 4.13919592 -1 2 C-0.67 1.34 -0.34 0.68 0 0 Z " fill="#2DB6BF" transform="translate(378,196)"/>
<path d="M0 0 C2.475 0.495 2.475 0.495 5 1 C5 1.99 5 2.98 5 4 C5.66 4 6.32 4 7 4 C7.33 4.99 7.66 5.98 8 7 C6.25 6.875 6.25 6.875 4 6 C1.75 2.9375 1.75 2.9375 0 0 Z " fill="#54B1B9" transform="translate(299,351)"/>
<path d="M0 0 C1 3 1 3 0.22265625 4.82421875 C-0.8515625 6.54947917 -1.92578125 8.27473958 -3 10 C-5 7 -5 7 -5 5 C-4.01 5 -3.02 5 -2 5 C-1.7834375 4.0409375 -1.7834375 4.0409375 -1.5625 3.0625 C-1 1 -1 1 0 0 Z " fill="#61B9C1" transform="translate(378,310)"/>
<path d="M0 0 C2.97 1.98 2.97 1.98 6 4 C5 6 5 6 3 8 C2.34 8 1.68 8 1 8 C0.67 5.36 0.34 2.72 0 0 Z " fill="#66CCD4" transform="translate(338,139)"/>
<path d="M0 0 C1.65 0 3.3 0 5 0 C3.68 2.31 2.36 4.62 1 7 C0.67 7 0.34 7 0 7 C0 4.69 0 2.38 0 0 Z " fill="#4EB5BD" transform="translate(364,329)"/>
<path d="M0 0 C1.65 0.33 3.3 0.66 5 1 C4.34 2.32 3.68 3.64 3 5 C1.68 5 0.36 5 -1 5 C-0.67 3.35 -0.34 1.7 0 0 Z " fill="#0A94A6" transform="translate(251,296)"/>
<path d="M0 0 C2.97 1.65 5.94 3.3 9 5 C9 5.33 9 5.66 9 6 C7.02 6 5.04 6 3 6 C2.67 4.68 2.34 3.36 2 2 C1.34 2 0.68 2 0 2 C0 1.34 0 0.68 0 0 Z " fill="#70CCD5" transform="translate(317,125)"/>
<path d="M0 0 C5.875 4.625 5.875 4.625 7 8 C6.34 8 5.68 8 5 8 C4.67 7.34 4.34 6.68 4 6 C1.98330173 4.86649466 1.98330173 4.86649466 0 4 C0 2.68 0 1.36 0 0 Z " fill="#67B9C1" transform="translate(235,322)"/>
<path d="M0 0 C1.32 0.33 2.64 0.66 4 1 C4 2.98 4 4.96 4 7 C2 5.75 2 5.75 0 4 C0 2.68 0 1.36 0 0 Z " fill="#33A3AC" transform="translate(235,284)"/>
<path d="M0 0 C-3.00617269 3.00617269 -5.82381598 2.59585316 -10 3 C-10 2.34 -10 1.68 -10 1 C-6.52674819 -0.1577506 -3.63932552 -0.06866652 0 0 Z " fill="#62B7BD" transform="translate(241,245)"/>
<path d="M0 0 C0.33 0 0.66 0 1 0 C1.66 3.63 2.32 7.26 3 11 C2.01 10.67 1.02 10.34 0 10 C0 6.7 0 3.4 0 0 Z " fill="#73CED5" transform="translate(386,212)"/>
<path d="M0 0 C2.64 0 5.28 0 8 0 C6.8125 1.5 6.8125 1.5 5 3 C2.3125 3.1875 2.3125 3.1875 0 3 C0 2.01 0 1.02 0 0 Z " fill="#1CAEBD" transform="translate(304,189)"/>
<path d="M0 0 C2.375 0.25 2.375 0.25 5 1 C6.3125 3.0625 6.3125 3.0625 7 5 C4.0625 4.1875 4.0625 4.1875 1 3 C0.67 2.01 0.34 1.02 0 0 Z " fill="#55B6C0" transform="translate(250,198)"/>
<path d="M0 0 C2.475 0.495 2.475 0.495 5 1 C5.33 1.99 5.66 2.98 6 4 C4.02 4 2.04 4 0 4 C0 2.68 0 1.36 0 0 Z " fill="#1193A0" transform="translate(265,356)"/>
<path d="M0 0 C1.32 0.33 2.64 0.66 4 1 C3.67 2.32 3.34 3.64 3 5 C2.01 5 1.02 5 0 5 C0 3.35 0 1.7 0 0 Z " fill="#0299A6" transform="translate(309,355)"/>
<path d="M0 0 C0.33 0 0.66 0 1 0 C1.25 2.25 1.25 2.25 1 5 C-1 7.3125 -1 7.3125 -3 9 C-3.33 7.35 -3.66 5.7 -4 4 C-2.68 4 -1.36 4 0 4 C0 2.68 0 1.36 0 0 Z " fill="#35A6B1" transform="translate(363,332)"/>
<path d="M0 0 C1.65 0 3.3 0 5 0 C5.625 1.875 5.625 1.875 6 4 C5.34 4.66 4.68 5.32 4 6 C2.68 4.02 1.36 2.04 0 0 Z " fill="#42ABB2" transform="translate(127,330)"/>
<path d="M0 0 C1.32 0 2.64 0 4 0 C2.92598892 2.91517292 2.22189824 4.77810176 0 7 C0 4.69 0 2.38 0 0 Z " fill="#52B8BF" transform="translate(370,320)"/>
<path d="M0 0 C-0.33 0.99 -0.66 1.98 -1 3 C-2.32 3 -3.64 3 -5 3 C-5 2.34 -5 1.68 -5 1 C-5.99 0.67 -6.98 0.34 -8 0 C-5.13822943 -1.43088528 -3.06624227 -0.59991697 0 0 Z " fill="#0A96A7" transform="translate(272,314)"/>
<path d="M0 0 C-2.17424117 2.50037734 -3.73045798 3.43628586 -7 4 C-7 3.01 -7 2.02 -7 1 C-4.53721199 -0.231394 -2.7204945 -0.07159196 0 0 Z " fill="#4DB0B4" transform="translate(251,240)"/>
<path d="M0 0 C2 1 2 1 3.125 4.0625 C3.41375 5.031875 3.7025 6.00125 4 7 C3.01 7.33 2.02 7.66 1 8 C-0.35439668 5.29120665 -0.06501451 2.99066732 0 0 Z " fill="#6BCAD3" transform="translate(373,181)"/>
<path d="M0 0 C0.66 0.33 1.32 0.66 2 1 C0.25 3.0625 0.25 3.0625 -2 5 C-4.25 4.75 -4.25 4.75 -6 4 C-5.01 3.67 -4.02 3.34 -3 3 C-3 2.34 -3 1.68 -3 1 C-2.01 0.67 -1.02 0.34 0 0 Z " fill="#40ABB0" transform="translate(163,135)"/>
</svg>
